# xmcd
# 
# Track frame offsets:
#     150
#     5270
#     25497
#     43630
#     64762
#     86312
#     90917
#     110550
#     128175
#     145895
#     150117
#     170217
#     186550
#     210015
#     229837
#     235110
# 
# Disc length: 3374
# 
# Revision: 11
# Processed by: cddbd v1.5.2PL0 Copyright (c) Steve Scherf et al.
# Submitted via: fre:ac v1.0.31
# 
DISCID=c50d2c10
DTITLE=Eddy Mitchell - Les Nouvelles Aventures D'Eddy Mitchell
DYEAR=1999
DGENRE=Variété Française
TTITLE0=Hip Hug Her
TTITLE1=J'Ai Des Goûts Simples
TTITLE2=Golden Boy
TTITLE3=J'Aime Pas Les Gens Heureux
TTITLE4=Mauvaise Option
TTITLE5=Hollywood Strings
TTITLE6=Destination Terre
TTITLE7=Ton Homme De Paille
TTITLE8=Décrocher Les Etoiles
TTITLE9=Walking To New Orleans
TTITLE10=Les Nuits De Pleine Lune
TTITLE11=On Va Dire Que C'Est Moi
TTITLE12=Les 3 Ssinges
TTITLE13=T'Es Qu'Un Joueur
TTITLE14=Ce N'Est Qu'Un Au Revoir
TTITLE15=Golden Boy - Bonus Track
EXTD=
EXTT0=
EXTT1=
EXTT2=
EXTT3=
EXTT4=
EXTT5=
EXTT6=
EXTT7=
EXTT8=
EXTT9=
EXTT10=
EXTT11=
EXTT12=
EXTT13=
EXTT14=
EXTT15=
PLAYORDER=
